Coordinates
version=1
nRows=14
nColumns=28
inDegrees=yes

Units are S.I. units (second, meters, Newtons, ...)
Angles are in degrees.

endheader
time	pelvis_tilt	pelvis_list	pelvis_rotation	pelvis_tx	pelvis_ty	pelvis_tz	hip_flexion_r	hip_adduction_r	hip_rotation_r	knee_angle_r	ankle_angle_r	subtalar_angle_r	mtp_angle_r	hip_flexion_l	hip_adduction_l	hip_rotation_l	knee_angle_l	socket_flexion	socket_adduction	socket_rotation	socket_tx	socket_ty	socket_tz	foot_flex	lumbar_extension	lumbar_bending	lumbar_rotation
      0.63333333	     -0.50349850	     -3.77627797	      7.32777350	     -0.00305394	      0.98549196	      0.26492152	     24.95238042	      3.57412962	     -9.15167224	     -5.97537015	     16.52988841	    -17.83406442	    -16.06827312	    -26.43739355	     -7.11967429	      3.13946676	      2.99432037	      3.85831107	      0.00000000	      0.00000000	      0.00000000	      0.00000000	      0.00000000	      7.91473286	     -9.77848144	      4.27178057	     -3.50600966
      0.63750000	     -0.67628669	     -3.78915910	      7.16058159	     -0.00280982	      0.98508883	      0.26517284	     25.30815201	      3.58762758	     -9.39678409	     -6.31223803	     16.52257429	    -17.55376760	    -15.18405416	    -26.37458986	     -7.04028283	      2.91604938	      3.19323005	      3.97834322	      0.00000000	      0.00000000	      0.00000000	      0.00000000	      0.00000000	      7.92354300	     -9.55276143	      4.22093797	     -3.46244295
      0.64166667	     -0.60294309	     -3.90359072	      7.28818528	      0.00354126	      0.98437760	      0.26535479	     25.42280643	      3.72049932	     -9.13391646	     -7.10903558	     16.23457402	    -17.56193203	    -15.19363459	    -26.58409960	     -7.25165566	      3.01531610	      2.81226771	      3.97961861	      0.00000000	      0.00000000	      0.00000000	      0.00000000	      0.00000000	      7.86041405	     -9.56361288	      4.47707180	     -3.47316023
      0.64583333	     -0.40582902	     -4.13713539	      7.14278848	      0.01027799	      0.98355171	      0.26586922	     25.51627179	      4.08190556	     -8.99021905	     -8.06284585	     14.61968311	    -18.37815638	    -11.22429246	    -27.22439924	     -7.45603535	      2.59302465	      3.02996870	      4.34282511	      0.00000000	      0.00000000	      0.00000000	      0.00000000	      0.00000000	      7.76792515	     -9.65584856	      4.80546535	     -3.25569182
      0.65000000	     -0.34416489	     -4.27746706	      7.17586465	      0.01671776	      0.98282311	      0.26624110	     25.69743928	      4.26733499	     -8.76512893	     -8.96931506	     14.26107087	    -18.34633457	    -11.25377776	    -27.43932477	     -7.65081174	      2.57942155	      2.66272690	      4.36912471	      0.00000000	      0.00000000	      0.00000000	      0.00000000	      0.00000000	      7.67416389	     -9.67874459	      5.05720652	     -3.30357679
      0.65416667	     -0.22340137	     -4.51207407	      6.89999879	      0.02347780	      0.98197415	      0.26698091	     25.91357070	      4.66420179	     -8.52003289	    -10.05388518	     13.63770902	    -18.46403795	    -10.46265621	    -27.97195659	     -7.78250499	      2.05063733	      2.75934263	      4.69520592	      0.00000000	      0.00000000	      0.00000000	      0.00000000	      0.00000000	      7.55886107	     -9.71792821	      5.36805223	     -2.91430014
      0.65833333	     -0.13177490	     -4.69754958	      6.78251861	      0.03013833	      0.98127353	      0.26757205	     26.07534417	      4.95788779	     -8.27977672	    -10.97903606	     12.60282058	    -18.81093237	     -8.41907023	    -28.32170738	     -7.94291382	      1.79725183	      2.60078861	      4.89487427	      0.00000000	      0.00000000	      0.00000000	      0.00000000	      0.00000000	      7.40401938	     -9.72814842	      5.63723327	     -2.77788697
      0.66250000	     -0.05332290	     -4.85857875	      6.74694066	      0.03678325	      0.98068895	      0.26807961	     26.27923275	      5.17992663	     -8.19193608	    -12.01822882	     12.21694465	    -18.85310560	     -8.38070396	    -28.54024646	     -8.11825913	      1.65839772	      2.19855838	      4.96883513	      0.00000000	      0.00000000	      0.00000000	      0.00000000	      0.00000000	      7.20878402	     -9.72273129	      5.90154611	     -2.84991523
      0.66666667	      0.03042969	     -5.04615335	      6.63561536	      0.04348421	      0.98013411	      0.26870304	     26.47940974	      5.45890152	     -8.07136240	    -13.06658340	     11.79503843	    -18.87448874	     -8.28473096	    -28.79481824	     -8.28086522	      1.41666175	      1.85745483	      5.11098656	      0.00000000	      0.00000000	      0.00000000	      0.00000000	      0.00000000	      6.99560408	     -9.72811918	      6.18236829	     -2.82916499
      0.67083333	      0.20867603	     -5.31040501	      6.41991138	      0.05038621	      0.97963185	      0.26936973	     26.51242521	      5.87087324	     -7.84074676	    -13.94747703	     10.40416128	    -19.32449555	     -4.40125650	    -29.29649321	     -8.46638305	      1.01359584	      1.82811888	      5.44474985	      0.00000000	      0.00000000	      0.00000000	      0.00000000	      0.00000000	      6.76135384	     -9.80785804	      6.52834907	     -2.44077353
      0.67500000	      0.31332506	     -5.49228850	      6.31701716	      0.05713044	      0.97926780	      0.26999609	     26.65566846	      6.13895044	     -7.73607892	    -14.96697918	     10.05526602	    -19.32152656	     -4.40978058	    -29.48618828	     -8.62404067	      0.80069104	      1.30843523	      5.52753639	      0.00000000	      0.00000000	      0.00000000	      0.00000000	      0.00000000	      6.49931254	     -9.82893588	      6.79921882	     -2.42433769
      0.67916667	      0.43011037	     -5.71040515	      6.15323878	      0.06396414	      0.97894040	      0.27070063	     26.77367541	      6.47105605	     -7.59581595	    -15.97274136	      9.71839201	    -19.31613037	     -4.37191534	    -29.73407038	     -8.78651401	      0.49698278	      0.89535154	      5.70025601	      0.00000000	      0.00000000	      0.00000000	      0.00000000	      0.00000000	      6.21027328	     -9.85575817	      7.10026756	     -2.32563944
      0.68333333	      0.57678592	     -5.93264701	      5.94880190	      0.07084507	      0.97871465	      0.27148160	     26.83457095	      6.83231635	     -7.42525655	    -16.94536686	      9.39823480	    -19.30853514	     -4.27895793	    -29.98374191	     -8.93275475	      0.14630380	      0.38368837	      5.83217072	      0.00000000	      0.00000000	      0.00000000	      0.00000000	      0.00000000	      5.89543744	     -9.92447410	      7.40336762	     -2.14235032
      0.68750000	      0.75921966	     -6.15614246	      5.72047214	      0.07772100	      0.97862420	      0.27226671	     26.82753763	      7.21028024	     -7.19611390	    -17.88412881	      9.09247361	    -19.30288155	     -4.10427257	    -30.22190537	     -9.05967541	     -0.25216417	     -0.24739333	      5.91898171	      0.00000000	      0.00000000	      0.00000000	      0.00000000	      0.00000000	      5.56449904	    -10.03272113	      7.68679753	     -1.86386494
